<?xml version="1.0" encoding="utf-8"?>
<!-- Generator: Adobe Illustrator 16.2.0, SVG Export Plug-In . SVG Version: 6.00 Build 0)  -->
<!DOCTYPE svg PUBLIC "-//W3C//DTD SVG 1.1//EN" "http://www.w3.org/Graphics/SVG/1.1/DTD/svg11.dtd">
<svg version="1.1" id="Capa_1" xmlns="http://www.w3.org/2000/svg" xmlns:xlink="http://www.w3.org/1999/xlink" x="0px" y="0px"
	 width="25px" height="25px" viewBox="35.562 35.562 25 25" enable-background="new 35.562 35.562 25 25" xml:space="preserve">
<g>
	<path d="M54.113,35.964l-3.139-0.005c-3.527,0-5.806,2.338-5.806,5.957v2.746h-3.156c-0.272,0-0.493,0.221-0.493,0.494v3.979
		c0,0.273,0.221,0.494,0.493,0.494h3.156V59.67c0,0.272,0.22,0.493,0.494,0.493h4.117c0.273,0,0.493-0.221,0.493-0.493V49.629h3.69
		c0.273,0,0.494-0.221,0.494-0.494l0.001-3.979c0-0.131-0.052-0.256-0.144-0.349c-0.094-0.093-0.219-0.145-0.351-0.145h-3.691
		v-2.328c0-1.119,0.268-1.688,1.726-1.688l2.114,0c0.272,0,0.493-0.221,0.493-0.493v-3.695
		C54.605,36.186,54.384,35.964,54.113,35.964z"/>
</g>
</svg>
