<?xml version="1.0" encoding="utf-8"?>
<!-- Generator: Adobe Illustrator 16.2.0, SVG Export Plug-In . SVG Version: 6.00 Build 0)  -->
<!DOCTYPE svg PUBLIC "-//W3C//DTD SVG 1.1//EN" "http://www.w3.org/Graphics/SVG/1.1/DTD/svg11.dtd">
<svg version="1.1" id="Capa_1" xmlns="http://www.w3.org/2000/svg" xmlns:xlink="http://www.w3.org/1999/xlink" x="0px" y="0px"
	 width="25px" height="25px" viewBox="36.319 36.319 25 25" enable-background="new 36.319 36.319 25 25" xml:space="preserve">
<g>
	<path d="M61.24,41.094c-0.036-0.042-0.096-0.056-0.144-0.033c-0.746,0.33-1.53,0.567-2.337,0.708
		c0.857-0.643,1.496-1.536,1.822-2.559c0.016-0.049-0.001-0.103-0.039-0.135c-0.043-0.031-0.096-0.036-0.142-0.01
		c-0.963,0.572-2.009,0.975-3.106,1.199c-0.973-1.008-2.329-1.585-3.734-1.585c-2.856,0-5.181,2.324-5.181,5.181
		c0,0.346,0.032,0.688,0.1,1.021c-3.958-0.245-7.658-2.145-10.174-5.23c-0.025-0.032-0.064-0.049-0.105-0.045
		c-0.041,0.002-0.078,0.025-0.097,0.06c-0.459,0.788-0.702,1.689-0.702,2.605c0,1.589,0.722,3.073,1.95,4.054
		c-0.633-0.076-1.25-0.275-1.807-0.585c-0.038-0.021-0.085-0.021-0.122,0c-0.037,0.023-0.061,0.062-0.062,0.105v0.066
		c0,2.281,1.502,4.285,3.643,4.949c-0.564,0.092-1.148,0.086-1.724-0.024c-0.042-0.008-0.086,0.007-0.116,0.04
		c-0.028,0.033-0.038,0.078-0.025,0.119c0.642,2.001,2.424,3.404,4.499,3.581c-1.729,1.269-3.776,1.935-5.936,1.935
		c-0.399,0-0.799-0.024-1.191-0.069c-0.058-0.006-0.113,0.027-0.133,0.081c-0.018,0.055,0.001,0.114,0.051,0.146
		c2.338,1.5,5.042,2.292,7.818,2.292c9.086,0,14.515-7.38,14.515-14.514c0-0.198-0.005-0.396-0.011-0.593
		c0.979-0.716,1.82-1.594,2.499-2.611C61.277,41.196,61.275,41.135,61.24,41.094z"/>
</g>
</svg>
